# xmcd
#
# Track frame offsets:
#	150
#	13852
#	30445
#	47549
#	68360
#	88317
#	104339
#	120880
#	139323
#	155727
#	170529
#
# Disc length: 2525 seconds
#
# Revision: 1
# Processed by: cddbd v1.5.1PL0 Copyright (c) Steve Scherf et al.
# Submitted via: audiograbber 1.83.01
#
DISCID=8809db0b
DTITLE=Various Artist - Word of Mouth - April 2005
DYEAR=2005
DGENRE=Rock
TTITLE0=Marshmallow - Anytime Soon
TTITLE1=The Magnetic Fields - I Don't Believe You
TTITLE2=Roots Manuva - Colossal Insight
TTITLE3=Ben Lee - We're All in This Together
TTITLE4=Everything But The Girl - Mirrorball (DJ Jazzy Jeff Full Sole Remix)
TTITLE5=Brendan Benson - What I'm Looking For
TTITLE6=Gretchen Peters - Tomorrow Morning
TTITLE7=Thievery Corporation feat. David Byrne - The Heart's a Lonely Hunter
TTITLE8=June Tabor - Bonnie James Campbell
TTITLE9=Ambulance Ltd - Anecdote
TTITLE10=Ray Lamontagne - Trouble (live)
EXTD=
EXTT0=
EXTT1=
EXTT2=
EXTT3=
EXTT4=
EXTT5=
EXTT6=
EXTT7=
EXTT8=
EXTT9=
EXTT10=
PLAYORDER=
